<?xml version="1.0" standalone="no"?>
<!DOCTYPE svg PUBLIC "-//W3C//DTD SVG 1.1//EN" "http://www.w3.org/Graphics/SVG/1.1/DTD/svg11.dtd" >
<svg xmlns="http://www.w3.org/2000/svg">
<metadata>Generated by IcoMoon</metadata>
<defs>
<font id="intimeinfo" horiz-adv-x="1024">
<font-face units-per-em="1024" ascent="960" descent="-64" />
<missing-glyph horiz-adv-x="1024" />
<glyph unicode="&#x20;" horiz-adv-x="512" d="" />
<glyph unicode="&#xe900;" glyph-name="linkedin" d="M320.016 114h-140v452h140zM333.984 710.008c0 45.258-36.719 81.992-81.953 81.992-45.406 0-82.031-36.734-82.031-81.992 0-45.273 36.625-82.008 82.031-82.008 45.234 0 81.953 36.734 81.953 82.008zM844 362.672c0 121.336-25.633 211.328-167.375 211.328-68.109 0-113.828-34.063-132.492-69.484h-0.133v61.484h-136v-452h136v224.422c0 58.773 14.961 115.711 87.813 115.711 71.859 0 74.188-67.211 74.188-119.445v-220.688h138zM1024 56v784c0 66.172-53.828 120-120 120h-784c-66.172 0-120-53.828-120-120v-784c0-66.172 53.828-120 120-120h784c66.172 0 120 53.828 120 120zM904 880c22.055 0 40-17.945 40-40v-784c0-22.055-17.945-40-40-40h-784c-22.055 0-40 17.945-40 40v784c0 22.055 17.945 40 40 40z" />
<glyph unicode="&#xe901;" glyph-name="instagram" d="M718.945 960h-413.89c-168.208 0-305.055-136.847-305.055-305.055v-413.89c0-168.208 136.847-305.055 305.055-305.055h413.89c168.208 0 305.055 136.847 305.055 305.055v413.89c-0.002 168.208-136.849 305.055-305.055 305.055zM920.986 241.055c0-111.583-90.458-202.041-202.041-202.041h-413.89c-111.583 0-202.041 90.458-202.041 202.041v413.89c0 111.585 90.458 202.041 202.041 202.041h413.89c111.583 0 202.041-90.456 202.041-202.041v-413.89zM512 712.843c-146.035 0-264.843-118.808-264.843-264.841s118.808-264.843 264.843-264.843 264.843 118.808 264.843 264.843-118.808 264.841-264.843 264.841zM512 286.172c-89.376 0-161.828 72.452-161.828 161.828s72.454 161.828 161.828 161.828c89.376 0 161.828-72.452 161.828-161.828 0-89.374-72.454-161.828-161.828-161.828zM840.818 710.854c0-35.049-28.413-63.462-63.462-63.462s-63.462 28.413-63.462 63.462c0 35.049 28.413 63.462 63.462 63.462s63.462-28.413 63.462-63.462z" />
<glyph unicode="&#xe902;" d="M627.282 49.591c-135.992 0-246.605 110.656-246.605 246.629 0 135.954 110.615 246.653 246.605 246.653 135.995 0 246.629-110.692 246.629-246.653 0-135.971-110.634-246.629-246.629-246.629zM627.282 660.898c-201.414 0-364.703-163.248-364.703-364.679 0-201.397 163.282-364.679 364.703-364.679 201.443 0 364.703 163.289 364.703 364.679 0 201.435-163.255 364.679-364.703 364.679z" />
<glyph unicode="&#xe903;" d="M627.282 208.917c-24.018 0-44.817 8.577-61.855 25.615-17.038 16.989-25.656 37.845-25.656 61.922 0 24.044 8.666 44.85 25.656 61.706 17.037 16.823 37.837 25.366 61.855 25.366 24.023 0 44.766-8.543 61.857-25.366 17.035-16.856 25.675-37.662 25.675-61.706 0-24.078-8.64-44.932-25.675-61.922-17.014-17.037-37.837-25.615-61.857-25.615z" />
<glyph unicode="&#xe904;" d="M582.671 740.717c-7.92 0-14.408 6.446-14.408 14.354v186.114c0 7.869 6.488 14.342 14.408 14.342h89.298c7.919 0 14.361-6.473 14.361-14.342v-186.114c0-7.909-6.442-14.354-14.361-14.354h-89.298z" />
<glyph unicode="&#xe905;" d="M366.334 658.883c-6.885-4.012-15.696-1.629-19.659 5.245l-93.054 161.166c-3.966 6.828-1.586 15.645 5.302 19.604l77.351 44.649c6.839 3.985 15.65 1.608 19.609-5.229l93.063-161.149c3.955-6.882 1.583-15.683-5.279-19.666l-77.332-44.622z" />
<glyph unicode="&#xe906;" d="M219.993 479.866c-3.986-6.854-12.778-9.271-19.658-5.278l-161.152 93.039c-6.832 3.963-9.218 12.774-5.255 19.682l44.673 77.277c3.963 6.858 12.725 9.214 19.563 5.304l161.207-93.058c6.878-3.96 9.208-12.827 5.242-19.658l-44.618-77.308z" />
<glyph unicode="&#xe907;" glyph-name="lightbulb-line" d="M425.515 192h43.819v213.333h85.333v-213.333h43.819c5.632 51.285 31.787 93.611 74.24 139.819 4.821 5.205 35.499 36.992 39.125 41.515 34.976 43.406 56.141 99.219 56.141 159.976 0 141.385-114.615 256-256 256s-256-114.615-256-256c0-60.718 21.138-116.499 56.458-160.385l-0.385 0.495c3.669-4.565 34.432-36.395 39.168-41.557 42.496-46.251 68.651-88.576 74.283-139.861zM426.667 106.667v-42.667h170.667v42.667h-170.667zM245.504 320c-46.629 57.873-74.846 132.286-74.846 213.291 0 188.513 152.82 341.333 341.333 341.333s341.333-152.82 341.333-341.333c0-81.042-28.244-155.488-75.425-214.031l0.511 0.655c-26.453-32.939-95.744-85.248-95.744-149.248v-106.667c0-47.128-38.205-85.333-85.333-85.333v0h-170.667c-47.128 0-85.333 38.205-85.333 85.333v0 106.667c0 64-69.333 116.309-95.829 149.333z" />
<glyph unicode="&#xe908;" glyph-name="pie-chart-line" d="M512 21.333c-235.648 0-426.667 191.019-426.667 426.667 0 191.061 125.568 352.768 298.667 407.125v-90.624c-125.979-52.145-212.995-174.098-212.995-316.374 0-188.42 152.612-341.196 340.97-341.461h0.025c142.401 0.004 264.44 87.176 315.671 211.066l0.83 2.267h90.624c-54.357-173.099-216.064-298.667-407.125-298.667zM936.533 405.333h-467.2v467.2c14.037 1.408 28.288 2.133 42.667 2.133 235.648 0 426.667-191.019 426.667-426.667 0-14.379-0.725-28.629-2.133-42.667zM554.667 786.688v-296.021h296.021c-20.098 154.728-141.294 275.923-294.303 295.839l-1.718 0.183z" />
<glyph unicode="&#xe909;" glyph-name="quill-pen-line" d="M296.107 361.131c-9.941-26.624-18.347-51.2-25.856-76.075 40.96 29.739 89.643 48.597 145.835 55.637 107.221 13.397 202.496 84.181 250.709 173.141l-62.123 62.080 102.955 103.083c18.347 18.347 39.040 52.224 60.928 101.035-238.635-36.992-384.768-183.125-472.491-418.901zM725.333 575.957l42.667-42.624c-42.667-128-170.667-256-341.333-277.333-113.877-14.251-185.003-92.459-213.419-234.667h-85.248c42.667 256 128 853.333 768 853.333-42.667-127.872-85.248-213.163-127.872-255.872l-42.795-42.837z" />
<glyph unicode="&#xe90a;" glyph-name="feedback" d="M224 240c-8.837 0-16-7.163-16-16v0-240c0-8.837 7.163-16 16-16s16 7.163 16 16v0 240c0 8.837-7.163 16-16 16v0zM315.312 644.688c5.299 5.285 12.612 8.553 20.688 8.553s15.389-3.268 20.689-8.554l-0.001 0.001c2.874-2.779 6.795-4.491 11.115-4.491 8.837 0 16 7.163 16 16 0 4.321-1.712 8.241-4.496 11.12l0.004-0.004c-11.091 11.070-26.402 17.916-43.312 17.916s-32.221-6.846-43.313-17.917l0.001 0.001c-2.779-2.874-4.491-6.795-4.491-11.115 0-8.837 7.163-16 16-16 4.321 0 8.241 1.712 11.12 4.496l-0.004-0.004zM443.312 644.688c5.299 5.285 12.612 8.553 20.688 8.553s15.389-3.268 20.689-8.554l-0.001 0.001c2.874-2.779 6.795-4.491 11.115-4.491 8.837 0 16 7.163 16 16 0 4.321-1.712 8.241-4.496 11.12l0.004-0.004c-11.091 11.070-26.402 17.916-43.312 17.916s-32.221-6.846-43.313-17.917l0.001 0.001c-2.779-2.874-4.491-6.795-4.491-11.115 0-8.837 7.163-16 16-16 4.321 0 8.241 1.712 11.12 4.496l-0.004-0.004zM528 816c-0.113 0-0.247-0.001-0.38-0.001-38.133 0-72.644 15.512-97.565 40.57l-0.006 0.006c-2.874 2.779-6.795 4.491-11.115 4.491-8.837 0-16-7.163-16-16 0-4.321 1.712-8.241 4.496-11.12l-0.004 0.004c30.677-30.856 73.153-49.953 120.090-49.953 0.171 0 0.342 0 0.513 0.001h-0.027c8.837 0 16 7.163 16 16s-7.163 16-16 16v0zM976 80h-80v240h80c8.837 0 16 7.163 16 16s-7.163 16-16 16v0h-96c-8.837 0-16-7.163-16-16v0-16h-56.736l-107.2 122.544c-2.839 3.233-6.932 5.306-11.51 5.455l-0.026 0.001c-0.227 0.012-0.493 0.019-0.761 0.019-4.348 0-8.275-1.803-11.075-4.702l-0.004-0.005c-8.825-8.916-16.029-19.457-21.119-31.132l-0.257-0.66c-25.22 22.524-58.639 36.337-95.282 36.48h-64.030v12.672c48.405 31.845 79.933 85.897 80 147.318v37.066c29.504 26.34 47.993 64.482 48 106.943v0.001c0.001 0.219 0.002 0.477 0.002 0.736 0 27.076-6.253 52.691-17.394 75.48l0.449-1.017c-2.488 5.803-8.152 9.794-14.748 9.794-8.837 0-16-7.163-16-16 0-2.805 0.722-5.441 1.989-7.733l-0.042 0.082c8.674-17.738 13.746-38.598 13.746-60.642 0-0.247-0.001-0.493-0.002-0.74v0.038c-0.009-21.16-5.96-40.928-16.275-57.729l0.275 0.481v41.248c0 8.837-7.163 16-16 16v0h-66.704c-53.862 0.158-101.007 28.769-127.212 71.586l-0.372 0.654c-2.847 4.683-7.923 7.764-13.717 7.764-0.805 0-1.597-0.060-2.37-0.174l0.087 0.011-16.912-2.432c-20.087-2.881-38.061-10.135-53.528-20.771l0.424 0.275c-4.099-2.936-6.738-7.683-6.738-13.046 0-8.837 7.163-16 16-16 3.21 0 6.199 0.945 8.704 2.572l-0.062-0.038c11.243 7.737 24.671 13.159 39.173 15.268l0.507 0.060 6.8 0.96c33.134-47.658 87.553-78.509 149.188-78.688h50.732v-112c0-79.529-64.471-144-144-144s-144 64.471-144 144v0 96c0.008 12.943 2.63 25.272 7.367 36.489l-0.231-0.617c0.525 1.515 0.827 3.262 0.827 5.079 0 8.837-7.163 16-16 16-6.27 0-11.698-3.607-14.322-8.858l-0.042-0.093c-6.043-14.18-9.57-30.674-9.6-47.988v-9.26c-10.040 16.32-15.991 36.088-16 57.246v0.002c0.1 79.489 64.511 143.9 143.99 144h96.010c0.064 0 0.14 0 0.216 0 36.623 0 70.033-13.754 95.347-36.378l-0.139 0.122c2.822-2.535 6.574-4.086 10.688-4.086 8.849 0 16.022 7.173 16.022 16.022 0 4.735-2.054 8.99-5.319 11.923l-0.015 0.013c-30.788 27.546-71.659 44.384-116.464 44.384-0.118 0-0.236 0-0.355 0h-95.982c-97.155-0.118-175.882-78.845-176-175.989v-0.011c0.007-42.462 18.496-80.604 47.86-106.821l0.14-0.123v-37.056c0.067-61.431 31.596-115.483 79.338-146.918l0.662-0.41v-12.672h-64c-79.489-0.1-143.9-64.511-144-143.99v-320.010c0-8.837 7.163-16 16-16s16 7.163 16 16v0 320c0.073 61.827 50.174 111.927 111.993 112h5.607l59.776-134.496c2.552-5.649 8.138-9.51 14.624-9.51 3.798 0 7.286 1.323 10.030 3.534l-0.031-0.024 22.4 17.92c3.070-3.402 6.439-6.426 10.101-9.071l0.187-0.129-12.8-89.328c-0.102-0.678-0.16-1.46-0.16-2.256 0-8.041 5.931-14.696 13.657-15.83l0.087-0.010c0.671-0.102 1.445-0.16 2.232-0.16 0.014 0 0.028 0 0.042 0h-0.002c8.034 0.008 14.681 5.937 15.814 13.657l0.010 0.087 11.712 82.112c2.010-0.316 4.328-0.496 6.688-0.496s4.678 0.18 6.941 0.528l-0.253-0.032 24.704-173.136-31.36-52.256-31.344 52.24 3.984 27.648c0.105 0.688 0.164 1.481 0.164 2.288 0 8.839-7.165 16.004-16.004 16.004-8.032 0-14.682-5.916-15.829-13.629l-0.011-0.088-4.8-33.28c-0.104-0.684-0.163-1.474-0.163-2.278 0-3.048 0.852-5.896 2.331-8.32l-0.040 0.070 48-80c2.849-4.678 7.921-7.755 13.712-7.755s10.863 3.077 13.672 7.684l0.040 0.071 48 80c1.437 2.352 2.287 5.199 2.287 8.244 0 0.794-0.058 1.575-0.17 2.339l0.010-0.087-26.496 185.968c3.843 2.773 7.207 5.797 10.221 9.143l0.051 0.057 22.4-17.92c2.713-2.186 6.202-3.51 10-3.51 6.487 0 12.072 3.86 14.584 9.409l0.041 0.101 59.76 134.496h5.6c0.060 0 0.132 0 0.203 0 34.997 0 66.201-16.237 86.491-41.588l0.17-0.22c-0.056-1.261-0.087-2.74-0.087-4.226 0-18.35 4.821-35.574 13.265-50.475l-0.266 0.509h-83.776c-26.495-0.019-47.967-21.502-47.967-48 0-12.315 4.638-23.547 12.262-32.045l-0.040 0.045c-7.604-8.445-12.256-19.679-12.256-32s4.651-23.555 12.294-32.043l-0.038 0.043c-7.617-8.461-12.276-19.716-12.276-32.060 0-12.242 4.583-23.414 12.127-31.893l-0.042 0.048c-7.533-8.439-12.137-19.634-12.137-31.904 0-26.51 21.49-48 48-48 0.026 0 0.052 0 0.077 0h30.252c0.385-0.032 0.833-0.050 1.285-0.050 8.947 0 16.228 7.137 16.458 16.029v0.021c0 8.837-7.163 16-16 16v0h-32c-8.407 0.529-15.025 7.477-15.025 15.97 0 8.324 6.357 15.164 14.481 15.929l0.064 0.005c2.464 0.112 4.751 0.774 6.771 1.865l-0.083-0.041h25.792c8.837 0 16 7.163 16 16s-7.163 16-16 16v0h-32c-1.654-0.090-3.204-0.416-4.655-0.948l0.111 0.036c-6.634 1.888-11.417 7.876-11.456 14.987v0.005c0 8.837 7.163 16 16 16v0h32c8.837 0 16 7.163 16 16s-7.163 16-16 16v0h-32c-8.837 0-16 7.163-16 16s7.163 16 16 16v0h32c8.837 0 16 7.163 16 16s-7.163 16-16 16v0h-32c-8.837 0-16 7.163-16 16s7.163 16 16 16v0h112c8.835 0.002 15.997 7.165 15.997 16 0 3.043-0.85 5.888-2.325 8.311l0.040-0.071-13.072 21.776c-6.359 10.412-10.124 23.010-10.124 36.488s3.765 26.076 10.301 36.8l-0.177-0.312 99.344-113.6c2.945-3.314 7.219-5.392 11.978-5.392 0.013 0 0.027 0 0.040 0h63.998v-176.24c-27.908-1.752-53.216-11.607-73.95-27.213l0.35 0.253c-17.184-12.942-38.876-20.746-62.387-20.8h-56.013c-8.837 0-16-7.163-16-16s7.163-16 16-16v0h56c30.763 0.069 59.129 10.275 81.95 27.452l-0.35-0.252c15.117 11.264 33.774 18.586 54.049 20.123l0.351 0.021v-15.344c0-8.837 7.163-16 16-16v0h96c8.837 0 16 7.163 16 16s-7.163 16-16 16v0zM400 432c23.049 0.031 45.041 4.517 65.174 12.643l-1.174-0.419v-20.544l-64-51.2-64 51.2v20.544c18.959-7.707 40.951-12.193 63.988-12.224h0.012zM326.192 313.44l-45.568 102.56h23.376c0-0.002 0-0.004 0-0.006 0-5.039 2.329-9.533 5.969-12.466l0.031-0.024 64.4-51.504zM400 304c-8.791 0.091-16.71 3.749-22.393 9.593l-0.007 0.007 22.4 17.92 22.4-17.92c-5.69-5.851-13.609-9.509-22.383-9.6h-0.017zM473.808 313.44l-48.208 38.56 64.384 51.504c3.679 2.955 6.014 7.453 6.016 12.496v0h23.376zM807.616 828.72l-6.128-35.744c-0.148-0.818-0.233-1.759-0.233-2.72 0-8.837 7.163-16 16-16 2.724 0 5.289 0.681 7.535 1.882l-0.086-0.042 32.112 16.896 32.096-16.896c2.159-1.148 4.721-1.822 7.439-1.824h0.001c0.002 0 0.004 0 0.006 0 8.837 0 16 7.163 16 16 0 0.955-0.084 1.891-0.244 2.8l0.014-0.096-6.128 35.744 25.984 25.312c2.991 2.91 4.847 6.975 4.847 11.472 0 8.001-5.872 14.63-13.542 15.812l-0.089 0.011-35.984 5.232-16 32.512c-2.67 5.331-8.091 8.928-14.352 8.928s-11.682-3.596-14.31-8.835l-0.042-0.092-16-32.528-35.888-5.232c-7.792-1.163-13.701-7.809-13.701-15.834 0-4.493 1.852-8.553 4.833-11.459l0.003-0.003zM839.328 856.096c5.316 0.793 9.717 4.104 12.006 8.66l0.042 0.092 5.44 11.008 5.424-11.008c2.331-4.648 6.732-7.959 11.96-8.741l0.088-0.011 12.144-1.76-8.784-8.56c-2.985-2.909-4.837-6.97-4.837-11.462 0-0.953 0.083-1.887 0.243-2.794l-0.014 0.096 2.080-12.096-10.864 5.712c-2.161 1.15-4.726 1.825-7.448 1.825s-5.287-0.675-7.535-1.867l0.087 0.042-10.848-5.712 2.080 12.096c0.146 0.811 0.229 1.745 0.229 2.698 0 4.493-1.852 8.553-4.834 11.459l-0.003 0.003-8.784 8.624zM807.616 651.312l-6.128-35.76c-0.146-0.812-0.23-1.747-0.23-2.702 0-8.837 7.163-16 16-16 2.723 0 5.287 0.68 7.532 1.88l-0.086-0.042 32.112 16.88 32.096-16.88c2.159-1.158 4.723-1.838 7.446-1.838 8.837 0 16 7.163 16 16 0 0.955-0.084 1.89-0.244 2.798l0.014-0.096-6.128 35.76 25.984 25.312c2.985 2.909 4.837 6.97 4.837 11.462 0 8.025-5.909 14.671-13.613 15.823l-0.088 0.011-35.904 5.216-16 32.528c-2.67 5.331-8.091 8.928-14.352 8.928s-11.682-3.596-14.31-8.835l-0.042-0.092-16-32.528-35.888-5.216c-7.792-1.163-13.701-7.809-13.701-15.834 0-4.493 1.852-8.553 4.833-11.459l0.003-0.003zM839.328 678.672c5.316 0.793 9.717 4.104 12.006 8.66l0.042 0.092 5.44 11.008 5.424-10.992c2.327-4.654 6.729-7.972 11.96-8.757l0.088-0.011 12.144-1.76-8.784-8.56c-2.985-2.909-4.837-6.97-4.837-11.462 0-0.953 0.083-1.887 0.243-2.794l-0.014 0.096 2.080-12.096-10.864 5.712c-2.159 1.159-4.724 1.839-7.448 1.839s-5.289-0.681-7.534-1.881l0.086 0.042-10.848-5.712 2.080 12.096c0.146 0.811 0.229 1.745 0.229 2.698 0 4.493-1.852 8.553-4.834 11.459l-0.003 0.003-8.784 8.56zM807.616 473.904l-6.128-35.76c-0.146-0.812-0.23-1.747-0.23-2.702 0-8.837 7.163-16 16-16 2.723 0 5.287 0.68 7.532 1.88l-0.086-0.042 32.112 16.88 32.096-16.88c2.159-1.158 4.723-1.838 7.446-1.838 8.837 0 16 7.163 16 16 0 0.955-0.084 1.89-0.244 2.798l0.014-0.096-6.128 35.76 25.984 25.296c2.933 2.902 4.75 6.927 4.75 11.377 0 8-5.871 14.629-13.54 15.812l-0.089 0.011-35.888 5.216-16 32.528c-2.67 5.331-8.091 8.928-14.352 8.928s-11.682-3.596-14.31-8.835l-0.042-0.092-16-32.528-35.888-5.216c-7.752-1.201-13.616-7.826-13.616-15.821 0-4.451 1.817-8.477 4.75-11.377l0.001-0.001zM839.328 501.264c5.316 0.793 9.717 4.104 12.006 8.66l0.042 0.092 5.44 11.008 5.424-11.008c2.331-4.648 6.732-7.959 11.96-8.741l0.088-0.011 12.144-1.76-8.784-8.56c-2.985-2.909-4.837-6.97-4.837-11.462 0-0.953 0.083-1.887 0.243-2.794l-0.014 0.096 2.080-12.096-10.864 5.712c-2.159 1.159-4.724 1.839-7.448 1.839s-5.289-0.681-7.534-1.881l0.086 0.042-10.848-5.712 2.080 12.096c0.146 0.811 0.229 1.745 0.229 2.698 0 4.493-1.852 8.553-4.834 11.459l-0.003 0.003-8.784 8.56z" />
<glyph unicode="&#xe90b;" glyph-name="target" d="M999.805 480.867c-15.328 14.141-36.18 22.875-57.211 23.969-23.883 1.234-46.258-7.281-62.922-23.953l-113.859-112.664c-2.25 3.898-4.82 7.578-7.703 10.992-14.008 16.633-34.492 25.789-57.672 25.789h-159.391c-30.055 0-59.375 3.898-87.141 11.578-72.391 20.023-141.547 5.398-200.008-42.32-23.773-19.406-41.117-40.516-52.086-55.906l-28.578 27.734c-3.758 3.648-8.852 5.719-14.094 5.719-0.047 0-0.086 0-0.133 0-5.43-0.039-10.68-2.297-14.445-6.203l-138.93-144.227c-3.719-3.859-5.742-9.047-5.625-14.406 0.117-5.367 2.359-10.461 6.242-14.156l234.977-223.742c3.898-3.711 8.898-5.563 13.891-5.563 5.242 0 10.484 2.039 14.43 6.086l137.633 141.203c3.758 3.859 5.844 9.133 5.742 14.523-0.102 5.313-2.328 10.438-6.141 14.141l-11.984 11.625 27.43 3.086c16.594 1.93 33.469 2.906 50.172 2.906h242.508c39.406 0 72.875 8.617 99.484 25.617 0.219 0.141 0.438 0.289 0.656 0.438 9.531 6.625 18.18 14.477 25.695 23.328l163.422 192.258c27.969 32.898 26.219 73.953-4.359 102.148zM254.594-8.031l-205.891 196.047 110.914 115.148 204.688-198.633zM973.469 404.812l-163.422-192.266c-5.188-6.102-11.133-11.523-17.688-16.117-19.977-12.648-46.031-19.070-77.453-19.070h-242.516c-18.242 0-36.688-1.070-54.742-3.172l-60.297-6.766-126.25 122.516c8.773 13.008 24.906 34.031 48.273 53.109 48.578 39.656 103.688 51.336 163.789 34.703 31.266-8.648 64.195-13.039 97.883-13.039h159.391c28.625 0 36.266-24.797 36.266-39.445 0-10.703-3.438-20.891-9.43-27.953-6.5-7.648-15.742-11.523-27.469-11.523h-138.75c-11.125 0-20.141-9.023-20.141-20.148s9.016-20.141 20.141-20.141h138.75c23.422 0 44.078 9.141 58.172 25.734 11.727 13.797 18.414 31.938 18.977 51.328l131.133 129.758c18.742 18.742 48.023 14.039 64.406-1.070 8.469-7.813 19.859-24.227 0.977-46.438zM498.235 271.008c-2.539 10.836-13.375 17.547-24.211 15.016-10.828-2.539-17.555-13.375-15.008-24.211l0.188-0.82c2.18-9.281 10.453-15.547 19.594-15.547 1.523 0 3.070 0.172 4.617 0.531 10.836 2.539 17.555 13.383 15.016 24.211zM136.156 527h196.281c10.688 0 20.578 3.469 28.625 9.328 8.047-5.859 17.938-9.328 28.625-9.328h196.289c10.688 0 20.578 3.469 28.625 9.328 8.047-5.859 17.938-9.328 28.625-9.328h196.281c26.891 0 48.766 21.883 48.766 48.773v91.531c0 41.109-23.008 76.82-57.445 94.438 16.688 20.125 26.734 45.938 26.734 74.063 0 64.070-52.125 116.195-116.195 116.195s-116.195-52.125-116.195-116.195c0-28.125 10.047-53.945 26.734-74.063-14.883-7.625-27.625-18.633-37.305-31.984-9.68 13.359-22.422 24.367-37.313 31.984 16.688 20.117 26.734 45.938 26.734 74.063 0 64.070-52.125 116.195-116.195 116.195s-116.195-52.125-116.195-116.195c0-28.125 10.055-53.945 26.742-74.070-14.891-7.617-27.633-18.625-37.313-31.984-9.68 13.359-22.422 24.367-37.313 31.992 16.688 20.117 26.734 45.938 26.734 74.055 0 64.078-52.125 116.203-116.195 116.203-64.063 0-116.188-52.125-116.188-116.203 0-28.117 10.047-53.938 26.734-74.063-34.438-17.617-57.453-53.336-57.453-94.438v-91.523c0-26.891 21.883-48.773 48.773-48.773zM741.375 911.711c41.852 0 75.906-34.047 75.906-75.906 0-41.852-34.055-75.906-75.906-75.906-41.859 0-75.906 34.047-75.906 75.906-0.008 41.859 34.047 75.906 75.906 75.906zM689.039 732.109c15.742-7.977 33.516-12.5 52.328-12.5 18.82 0 36.594 4.523 52.328 12.5 31.305-5.453 54.297-32.43 54.297-64.805v-91.531c0-4.68-3.805-8.484-8.484-8.484h-196.281c-4.672 0-8.477 3.805-8.477 8.484v91.531c-0.008 32.367 22.992 59.352 54.289 64.805zM487.836 911.711c41.852 0 75.906-34.047 75.906-75.906 0-41.852-34.055-75.906-75.906-75.906-41.859 0-75.906 34.047-75.906 75.906s34.047 75.906 75.906 75.906zM435.508 732.109c15.734-7.977 33.508-12.5 52.328-12.5s36.586 4.523 52.328 12.5c31.297-5.453 54.297-32.43 54.297-64.805v-91.531c0-4.68-3.805-8.484-8.484-8.484h-196.281c-4.68 0-8.484 3.805-8.484 8.484v91.531c0 32.367 23 59.352 54.297 64.805zM234.297 911.711c41.852 0 75.906-34.047 75.906-75.906 0-41.852-34.055-75.906-75.906-75.906s-75.906 34.055-75.906 75.906c0 41.859 34.055 75.906 75.906 75.906zM127.672 667.305c0 32.367 23 59.352 54.297 64.805 15.742-7.977 33.508-12.5 52.328-12.5s36.586 4.523 52.328 12.5c31.305-5.453 54.297-32.43 54.297-64.805v-91.531c0-4.68-3.805-8.484-8.484-8.484h-196.281c-4.68 0-8.484 3.805-8.484 8.484z" />
<glyph unicode="&#xe90c;" glyph-name="right-arrow" d="M598.064 759.168c-12.784 12.176-33.056 11.696-45.232-1.104-12.192-12.8-11.68-33.056 1.104-45.248l245.472-232.816h-639.408c-17.664 0-32-14.336-32-32s14.336-32 32-32h638.384l-244.448-232.832c-12.8-12.192-13.296-32.448-1.104-45.248 6.288-6.592 14.72-9.92 23.168-9.92 7.936 0 15.872 2.928 22.064 8.832l279.184 265.92c12.096 12.080 18.752 28.144 18.752 45.248s-6.656 33.168-19.312 45.792z" />
<glyph unicode="&#xe90d;" glyph-name="down-angle" d="M1013.768 685.029l-51.299 51.295c-6.836 6.85-14.71 10.264-23.612 10.264-8.88 0-16.751-3.414-23.587-10.264l-403.265-403.244-403.247 403.233c-6.839 6.85-14.71 10.264-23.601 10.264-8.895 0-16.765-3.414-23.601-10.264l-51.292-51.299c-6.85-6.836-10.264-14.706-10.264-23.601 0-8.888 3.425-16.758 10.264-23.594l478.14-478.151c6.836-6.839 14.71-10.257 23.601-10.257s16.751 3.418 23.583 10.257l478.18 478.151c6.836 6.839 10.232 14.71 10.232 23.594 0 8.895-3.396 16.765-10.232 23.615z" />
<glyph unicode="&#xe90e;" glyph-name="workers" d="M233.241 833.046h64.071c8.289 0 15 6.711 15 15 0 8.281-6.711 15-15 15h-64.071c-8.281 0-15-6.719-15-15 0-8.289 6.719-15 15-15zM698.797 848.047c0-8.289 6.719-15 15-15h64.078c8.281 0 15 6.711 15 15 0 8.281-6.719 15-15 15h-64.078c-8.281 0-15-6.719-15-15zM296.851 931.469l28.891-13.844c2.094-1.008 4.297-1.484 6.477-1.484 5.586 0 10.953 3.141 13.531 8.523 3.586 7.469 0.43 16.43-7.039 20.008l-28.891 13.852c-7.469 3.578-16.43 0.43-20.008-7.047-3.578-7.469-0.43-16.422 7.039-20.008zM685.376 778.46c-7.477 3.586-16.43 0.43-20.008-7.039-3.586-7.469-0.43-16.43 7.039-20.008l28.883-13.852c2.094-1 4.305-1.477 6.477-1.477 5.594 0 10.961 3.141 13.539 8.516 3.578 7.469 0.43 16.43-7.047 20.008zM678.899 916.14c2.172 0 4.383 0.477 6.477 1.484l28.883 13.844c7.469 3.586 10.625 12.539 7.039 20.016-3.578 7.469-12.539 10.617-20.008 7.039l-28.891-13.852c-7.469-3.578-10.617-12.539-7.039-20.008 2.578-5.383 7.945-8.523 13.539-8.523zM325.742 778.46l-28.891-13.844c-7.469-3.586-10.617-12.547-7.039-20.016 2.578-5.375 7.945-8.516 13.539-8.516 2.172 0 4.383 0.477 6.469 1.477l28.891 13.852c7.469 3.578 10.625 12.539 7.039 20.008-3.578 7.469-12.539 10.625-20.008 7.039zM977.501 185.255l-109.844 43.93c-6.5 2.602-10.711 8.813-10.711 15.82v52.977c29.461 26.242 48.063 64.422 48.063 106.875v128.93c9.953 11.156 16.016 25.852 16.016 41.938v48.055c0 8.289-6.719 15-15 15h-192.227c-27.094 0-50.242-17.18-59.149-41.211-39.555 35.555-91.836 57.227-149.094 57.227-58.32 0-111.477-22.484-151.282-59.235-34.102 27.93-76.664 43.219-121.032 43.219-105.43 0-191.204-85.774-191.204-191.204v-192.227c0-7.25 5.18-13.461 12.313-14.758l98.039-17.82c-1.695-3.453-4.516-6.313-8.125-7.984l-97.633-45.063c-22.258-10.266-36.633-32.742-36.633-57.25v-81.383c0-8.281 6.711-15 15-15 8.281 0 15 6.719 15 15v81.383c0 12.852 7.539 24.625 19.203 30.016l79.344 36.617 62.586-58.453c9-8.414 20.555-12.617 32.109-12.617 11.547 0 23.102 4.211 32.109 12.617l39.469 36.867 71.133-20.328-95.336-43.336c-28.164-12.797-46.36-41.055-46.36-71.985v-70.875c0-8.281 6.719-15 15-15 8.289 0 15 6.719 15 15v70.875c0 19.195 11.297 36.734 28.766 44.672l63.383 28.813 107.211-67.071c12.742-7.969 27.344-11.953 41.938-11.953 14.602 0 29.203 3.984 41.938 11.953l107.219 67.071 63.375-28.813c17.477-7.938 28.774-25.477 28.774-44.672v-70.875c0-8.281 6.711-15 15-15 8.281 0 14.992 6.719 14.992 15v70.875c0 30.93-18.195 59.188-46.352 71.985l-95.336 43.336 68.242 19.5c17.961-8.125 38.086-12.453 58.445-12.453 43.766 0 84.555 20.023 107.618 51.914l96.883-38.758c12.625-5.047 20.781-17.094 20.781-30.688v-95.617c0-8.281 6.719-15 15-15 8.289 0 15 6.719 15 15v95.617c0 25.93-15.555 48.914-39.633 58.547zM713.798 608.78h177.227v-33.055c0-18.227-14.828-33.055-33.055-33.055h-96.11c-8.289 0-15-6.719-15-15s6.711-15 15-15h96.11c5.898 0 11.609 0.836 17.039 2.359v-110.172c0-62.391-50.758-113.149-113.149-113.149-11.328 0-22.399 1.664-33.063 4.922v53.485c10.164-5.891 21.422-8.977 33.063-8.977 14.875 0 29.156 5.023 41.289 14.539 6.516 5.117 7.664 14.539 2.547 21.063-5.109 6.516-14.539 7.664-21.055 2.547-6.805-5.328-14.68-8.148-22.781-8.148-8.109 0-15.984 2.82-22.789 8.148-3.031 2.383-6.703 3.391-10.273 3.148v49.125c0 52.149-17.977 100.164-48.047 138.204 0 3.258-0.008 5.836-0.008 5.961 0 18.227 14.828 33.055 33.055 33.055zM505.555 624.796c106.555 0 193.243-86.688 193.243-193.235v-244.985l-94.688-27.055c-2.219 4.477-3.461 9.469-3.461 14.648v30.242c48.164 31.266 80.094 85.532 80.094 147.125v50.695c0 14.617-10.453 27.383-24.852 30.344-20.461 4.219-59.977 14.344-94.672 34.789-7.141 4.203-16.336 1.828-20.539-5.305-4.211-7.141-1.828-16.336 5.305-20.539 38.438-22.649 81.563-33.734 103.86-38.32 0.414-0.086 0.898-0.391 0.898-0.969v-50.695c0-80.094-65.133-145.258-145.188-145.258s-145.188 65.164-145.188 145.258v50.695c0 0.578 0.492 0.875 0.906 0.969 33.328 6.859 115.266 28.734 156.29 83.43 4.969 6.633 3.625 16.031-3 21s-16.031 3.625-21-3c-11.617-15.484-48.352-53.508-138.336-72.055-14.398-2.961-24.852-15.727-24.852-30.344v-50.695c0-61.594 31.93-115.86 80.094-147.125v-30.242c0-5.18-1.242-10.172-3.461-14.648l-94.688 27.055v244.985c-0.008 106.547 86.68 193.235 193.235 193.235zM72.038 447.577c0 88.883 72.313 161.204 161.204 161.204 36.672 0 71.86-12.398 100.321-35.063-21.563-26.039-37.328-57.031-45.32-90.992-29.445 11.055-65.719 28.813-92.453 55.547-5.852 5.859-15.352 5.859-21.211 0-5.859-5.852-5.859-15.352 0-21.211 26.461-26.461 63.016-48.125 108.735-64.485-0.648-6.922-0.992-13.93-0.992-21.016v-134.008c-15.227-7.328-32.031-11.18-49.078-11.18-62.391 0-113.149 50.758-113.149 113.149v34.789c0 4.547 1.773 8.828 4.992 12.039l22.649 22.656c5.859 5.859 5.859 15.359 0 21.219-5.852 5.852-15.352 5.852-21.211 0l-22.649-22.656c-8.891-8.883-13.781-20.695-13.781-33.258v-34.789c0-49.719 25.492-93.578 64.078-119.25v-27.336l-82.133 14.938zM244.866 142.576c-6.523-6.094-16.734-6.094-23.258 0l-54.828 51.219c10.805 8.813 17.383 22.164 17.383 36.469v34.774c15.32-5.602 31.844-8.664 49.078-8.664 16.805 0 33.43 2.969 49.078 8.664v-87.485zM531.586 53.724c-15.813-9.891-36.242-9.891-52.055 0l-90.36 56.524 14.328 6.516c22.453 10.203 36.961 32.734 36.961 57.406v14.664c20.133-8.094 42.102-12.555 65.094-12.555s44.961 4.461 65.094 12.555v-14.664c0-24.672 14.508-47.203 36.961-57.406l14.336-6.516zM761.86 174.24c-11.32 0-22.508 1.695-33.063 4.883v86.438c10.766-2.547 21.82-3.852 33.063-3.852 23.43 0 45.547 5.695 65.094 15.727v-32.43c0-13.625 5.766-26.133 15.445-34.859-17.898-22.141-48.031-35.906-80.539-35.906zM825.931 416.561c8.281 0 15 6.711 15 15v16.016c0 8.281-6.719 15-15 15s-15-6.719-15-15v-16.016c0-8.289 6.719-15 15-15zM169.163 400.537c8.289 0 15 6.719 15 15v16.023c0 8.281-6.711 15-15 15-8.281 0-15-6.719-15-15v-16.023c0-8.281 6.719-15 15-15zM192.968 338.928c11.922-7.836 25.844-11.977 40.274-11.977 14.422 0 28.352 4.141 40.274 11.977 6.922 4.555 8.852 13.852 4.297 20.774-4.547 6.922-13.852 8.852-20.774 4.297-7.016-4.609-15.242-7.047-23.797-7.047s-16.789 2.438-23.805 7.047c-6.922 4.547-16.219 2.625-20.774-4.297-4.547-6.922-2.625-16.227 4.305-20.774zM429.054 311.81c-2.789-4.125-3.344-9.367-1.492-13.992 14.023-34.906 44.641-57.461 77.992-57.461 33.359 0 63.977 22.555 78 57.461 1.852 4.625 1.297 9.867-1.492 13.992s-7.445 6.602-12.43 6.602h-128.149c-4.984-0.008-9.641-2.477-12.43-6.602zM543.219 288.404c-10.117-11.461-23.414-18.055-37.664-18.055s-27.547 6.594-37.664 18.055zM443.476 378.194c2.266-6 7.969-9.695 14.031-9.695 1.758 0 3.555 0.313 5.305 0.977 7.75 2.93 11.648 11.594 8.719 19.336-5.828 15.375-21.117 25.711-38.055 25.711-16.945 0-32.234-10.336-38.063-25.711-2.93-7.742 0.977-16.406 8.719-19.336 7.75-2.938 16.406 0.969 19.344 8.719 1.188 3.148 4.742 6.328 10 6.328 5.25 0 8.805-3.18 10-6.328zM548.305 369.475c7.75-2.938 16.406 0.969 19.336 8.719 1.195 3.148 4.75 6.328 10 6.328s8.813-3.18 10-6.328c2.273-6 7.977-9.695 14.031-9.695 1.766 0 3.563 0.313 5.313 0.977 7.742 2.93 11.648 11.594 8.711 19.336-5.82 15.375-21.109 25.711-38.055 25.711-16.938 0-32.234-10.336-38.055-25.711-2.938-7.742 0.969-16.406 8.719-19.336zM350.781 837.437l144.172-144.165c2.922-2.93 6.766-4.398 10.602-4.398s7.68 1.469 10.609 4.398l144.165 144.165c5.406 5.406 5.883 14.008 1.109 19.977l-64.078 80.094c-2.844 3.563-7.156 5.633-11.711 5.633h-160.188c-4.555 0-8.859-2.070-11.711-5.633l-64.071-80.094c-4.781-5.969-4.297-14.57 1.102-19.977zM432.211 833.046l34.609-69.227-69.219 69.227zM613.516 833.046l-69.227-69.227 34.609 69.227zM545.359 833.046l-39.805-79.61-39.805 79.61zM472.687 863.047l32.867 41.078 32.867-41.078zM618.516 863.047h-41.672l-40.078 50.094h41.68zM432.672 913.133h41.672l-40.070-50.094h-41.68z" />
<glyph unicode="&#xe90f;" glyph-name="user" d="M504.701 466.736c67.765 0 126.445 24.305 174.39 72.258 47.945 47.945 72.25 106.609 72.25 174.382 0 67.75-24.305 126.421-72.258 174.382-47.953 47.937-106.625 72.242-174.382 72.242-67.773 0-126.437-24.305-174.382-72.25s-72.258-106.617-72.258-174.374c0-67.773 24.312-126.445 72.265-174.39 47.953-47.937 106.625-72.25 174.374-72.25zM936.254 172.597c-1.383 19.953-4.18 41.719-8.297 64.703-4.156 23.156-9.508 45.047-15.914 65.054-6.617 20.68-15.617 41.101-26.742 60.672-11.547 20.312-25.109 38-40.328 52.554-15.914 15.227-35.398 27.469-57.929 36.398-22.453 8.883-47.336 13.383-73.953 13.383-10.453 0-20.562-4.289-40.086-17-12.016-7.836-26.070-16.898-41.758-26.922-13.414-8.547-31.586-16.555-54.031-23.805-21.898-7.086-44.133-10.68-66.078-10.68s-44.172 3.594-66.093 10.68c-22.422 7.242-40.594 15.25-53.992 23.797-15.539 9.93-29.601 18.992-41.797 26.937-19.5 12.711-29.617 17-40.070 17-26.625 0-51.5-4.508-73.945-13.398-22.516-8.914-42.008-21.156-57.937-36.398-15.211-14.562-28.781-32.242-40.312-52.547-11.117-19.57-20.117-39.984-26.742-60.679-6.398-20.008-11.75-41.89-15.906-65.047-4.117-22.953-6.914-44.726-8.297-64.726-1.359-19.594-2.047-39.93-2.047-60.469 0-53.453 16.992-96.726 50.5-128.64 33.094-31.492 76.883-47.469 130.132-47.469h493.061c53.25 0 97.023 15.969 130.124 47.469 33.515 31.89 50.508 75.172 50.508 128.648-0.008 20.633-0.703 40.984-2.070 60.484z" />
<glyph unicode="&#xe910;" glyph-name="right-angle" d="M805.387 517.681l-458.355 415.788c-35.372 35.372-92.668 35.372-128.040 0s-35.372-92.666 0-128.040l393.995-357.431-393.995-357.429c-35.372-35.371-35.372-92.666 0-128.039s92.668-35.372 128.040 0l458.355 415.788c19.112 19.112 27.54 44.652 25.966 69.681 1.533 25.030-6.853 50.569-25.966 69.682z" />
<glyph unicode="&#xe911;" glyph-name="email" d="M1023.796 568.53c-0.106 1.176-0.34 2.338-0.7 3.464-0.234 1.006-0.56 1.988-0.972 2.936-0.478 0.926-1.050 1.802-1.706 2.612-0.658 0.962-1.42 1.848-2.27 2.646-0.274 0.238-0.392 0.564-0.682 0.802l-164.138 127.476v132.119c0 28.277-22.925 51.203-51.203 51.203h-184.961l-74.058 57.501c-18.295 14.269-43.95 14.269-62.245 0l-74.074-57.501h-184.961c-28.277 0-51.203-22.923-51.203-51.203v-132.121l-164.086-127.476c-0.29-0.24-0.41-0.564-0.682-0.802-0.85-0.796-1.612-1.684-2.27-2.646-0.656-0.81-1.228-1.684-1.706-2.612-0.414-0.946-0.738-1.93-0.972-2.936-0.356-1.11-0.59-2.254-0.7-3.414 0-0.358-0.204-0.666-0.204-1.024v-580.343c0.024-10.857 3.536-21.417 10.019-30.124 0.102-0.154 0.12-0.342 0.238-0.478 0.12-0.136 0.376-0.29 0.546-0.478 9.588-12.617 24.501-20.055 40.348-20.123h921.647c15.909 0.048 30.884 7.522 40.484 20.207 0.136 0.17 0.342 0.222 0.46 0.392 0.12 0.17 0.136 0.324 0.24 0.478 6.482 8.708 9.995 19.269 10.019 30.124v580.297c-0.002 0.358-0.188 0.666-0.206 1.024zM501.733 922.358c5.96 4.736 14.401 4.736 20.361 0l39.374-30.568h-98.991l39.256 30.568zM55.453-29.858l446.283 346.66c5.964 4.728 14.399 4.728 20.361 0l446.401-346.66h-913.044zM989.866-3.249l-446.761 346.984c-18.299 14.257-43.946 14.257-62.245 0l-446.777-346.984v544.762l279.686-217.185c7.452-5.778 18.177-4.422 23.955 3.030s4.422 18.177-3.030 23.955l-284.14 220.631 120.070 93.309v-131.881c0-9.426 7.642-17.067 17.067-17.067s17.067 7.642 17.067 17.067v307.216c0 9.426 7.64 17.067 17.067 17.067h580.295c9.426 0 17.067-7.64 17.067-17.067v-307.216c0-9.426 7.64-17.067 17.067-17.067s17.067 7.642 17.067 17.067v131.881l120.070-93.309-284.634-221.025c-4.896-3.71-7.422-9.766-6.61-15.857s4.834-11.275 10.533-13.573c5.698-2.298 12.193-1.358 17.003 2.464l280.18 217.559v-544.762zM716.784 550.439v68.269c0 113.114-91.697 204.81-204.81 204.81s-204.81-91.697-204.81-204.81 91.697-204.81 204.81-204.81c9.426 0 17.067 7.64 17.067 17.067s-7.64 17.067-17.067 17.067c-94.261 0-170.675 76.414-170.675 170.675s76.414 170.675 170.675 170.675 170.675-76.414 170.675-170.675v-68.269c0-18.853-15.283-34.136-34.136-34.136s-34.136 15.283-34.136 34.136v68.269c0 9.426-7.64 17.067-17.067 17.067s-17.067-7.64-17.067-17.067c0-37.704-30.566-68.269-68.269-68.269s-68.269 30.566-68.269 68.269 30.566 68.269 68.269 68.269c9.426 0 17.067 7.64 17.067 17.067s-7.64 17.067-17.067 17.067c-45.832 0.102-86.152-30.262-98.713-74.34s5.694-91.135 44.696-115.208c39.002-24.073 89.249-19.301 123.020 11.687 3.716-36.094 35.088-62.931 71.322-61.013 36.236 1.92 64.599 31.918 64.485 68.203z" />
<glyph unicode="&#xe912;" glyph-name="headphones" d="M90 116h60c16.57 0 30 13.43 30 30v302c0 16.57-13.43 30-30 30h-60c-49.703 0-90-40.297-90-90v-182c0-49.703 40.297-90 90-90zM934 478h-60c-16.57 0-30-13.43-30-30v-362c0-16.555-13.445-30-30-30h-155.523c-12.43 34.844-45.414 60-84.477 60h-122c-49.625 0-90-40.375-90-90s40.375-90 90-90h122c39.063 0 72.047 25.156 84.477 60h155.523c49.625 0 90 40.375 90 90v30h30c49.703 0 90 40.297 90 90v182c0 49.703-40.297 90-90 90zM61.367 535.102c9.281 1.805 18.828 2.898 28.633 2.898h60c11.016 0 21.453-2.266 31.219-5.906 12.383 170.961 156.656 307.906 330.781 307.906s318.398-136.945 330.781-307.906c9.766 3.641 20.203 5.906 31.219 5.906h60c9.805 0 19.352-1.094 28.633-2.898-14.086 235.836-211.258 424.898-450.633 424.898s-436.547-189.063-450.633-424.898z" />
<glyph unicode="&#xe913;" glyph-name="pin" d="M512 960c-188.208 0-341.334-153.126-341.334-341.334 0-56.5 14.126-112.52 40.98-162.208l281.688-509.458c3.75-6.792 10.896-11 18.666-11s14.916 4.208 18.666 11l281.792 509.626c26.75 49.52 40.876 105.542 40.876 162.042 0 188.206-153.126 341.332-341.334 341.332zM512 448c-94.104 0-170.666 76.562-170.666 170.666s76.562 170.666 170.666 170.666 170.666-76.562 170.666-170.666c0-94.104-76.562-170.666-170.666-170.666z" />
<glyph unicode="&#xe914;" glyph-name="search" d="M1011.488 8.835l-291.197 291.197c56.405 69.673 90.367 158.206 90.367 254.632 0 223.486-181.844 405.33-405.33 405.33s-405.328-181.842-405.328-405.328 181.844-405.33 405.33-405.33c96.425 0 184.958 33.962 254.632 90.367l291.197-291.197c8.32-8.32 19.242-12.502 30.166-12.502s21.846 4.182 30.166 12.502c16.682 16.682 16.682 43.648-0.002 60.329zM405.33 234.669c-176.468 0-319.997 143.529-319.997 319.997s143.529 319.997 319.997 319.997 319.997-143.529 319.997-319.997-143.531-319.997-319.997-319.997z" />
<glyph unicode="&#xe915;" glyph-name="minus" d="M981.332 490.668h-938.665c-23.565 0-42.668-19.103-42.668-42.668s19.102-42.668 42.668-42.668h938.668c23.565 0 42.668 19.102 42.668 42.668s-19.105 42.668-42.67 42.668z" />
</font>
</defs>
</svg>
